Patient4_TMGait_0pt6_01_right_33_EMG.mot
version=1
nRows=16
nColumns=33
inDegrees=no
endheader
time	1LAddLong	2LGlutMax	3LGlutMed	4LIliopsoas	5LSemiMemb	6LBicFemLong	7LRecFem	8LVastMed	9LVastLat	10LGasMed	11LTibAnt	12lTibPost	13LPeroneusLong	14LSol	15LExtDigLong	16LFlexDigLong	17RAddLong	18RGlutMax	19RGlutMed	20RIliopsoas	21RSemiMemb	22RBicFemLong	23RRecFem	24RVastMed	25RVastLat	26RGasMed	27RTibAnt	28RTibPost	29RPeroneusLong	30RSol	31RExtDigLong	32RFlexDigLong
40.43	-0.008087	0.13931	-0.024414	0.010681	0.027618	0.14679	-0.013428	0.003967	-0.097198	0.021973	0.007172	-0.002899	0.068054	0.079193	-0.15182	-0.004883	-0.019073	-0.027313	-0.11597	0.033417	0.064392	0.11627	0.030518	0.048981	-0.00946	-0.02655	0.052338	-0.38315	0.24567	-0.569	-0.000305	-0.027161
40.431	-0.026398	0.1889	-0.005341	0.018463	-0.056763	0.069733	-0.010223	0.010223	-0.056915	0.00885	-0.012512	0.005493	0.046082	0.083466	-0.17441	0.000763	0.010223	-0.043182	0.016632	0.04425	0.11261	0.050201	0.071564	-0.019531	-0.000153	-0.016327	0.006104	0.36667	0.30319	0.077667	-0.006104	-0.016174
40.432	-0.068207	0.28229	-0.0177	0.005646	-0.055695	0.021057	0.00351	0.014801	-0.029755	0.00412	-0.005951	0.002747	0.027466	0.048676	-0.18921	-0.002747	0.017242	-0.016327	0.076904	0.052795	0.12756	0.052338	0.091095	0.019073	0.007629	-0.003662	-0.046387	0.43564	0.4158	0.99106	-0.004425	-0.012817
40.433	-0.019684	0.36011	-0.022278	0	-0.052643	-0.018005	-0.002441	0.012207	0.027161	0.008698	0.018616	-0.006866	-0.004578	0.080261	-0.1207	-0.005951	0.026703	0.022583	-0.12848	-0.001984	0.10971	0.037079	0.067444	-0.023651	0.014801	-0.023651	-0.04303	0.13641	0.18539	0.92895	-0.006714	-0.001678
40.434	-0.0383	0.31418	-0.02243	0.014038	-0.010834	0.02594	-0.038605	0.012512	0.062103	0.00351	0.035858	0.007172	-0.007935	0.15869	0.096588	0.001526	0.003662	0.029602	-0.2385	-0.041199	0.063019	0.067291	0.065765	0.042725	0.025787	-0.043335	0.003052	-0.007629	-0.071869	0.52155	-0.006866	0.000916
40.435	-0.001373	0.34683	-0.037537	0.007629	0.1091	0.090332	0.034332	0.01297	0.12054	-0.002441	-0.008087	-0.000916	0.013733	0.13107	0.073853	-0.000458	-0.004425	0.089264	0.08606	-0.098572	0.047302	0.05661	0.093994	0.005646	0.025024	-0.026245	-0.029907	-0.065155	-0.032501	0.6041	-0.005188	0.002594
40.436	0.03891	0.30579	-0.033417	0.003204	0.10544	-0.095673	0.030975	0.004883	0.14435	-0.005798	-0.063171	0.004578	0.040436	0.062256	0.20386	0.012207	-0.021667	0.15976	0.12314	-0.098724	0.018463	0.049133	0.062103	0.065765	-0.026398	-0.028534	-0.035553	-0.10223	0.057373	0.48813	-0.007019	0.007935
40.437	0.047302	0.31464	-0.045166	0.007172	0.10864	-0.47089	0.024567	-0.003967	0.15289	-0.002747	0.012665	-0.00351	-0.02594	-0.007019	0.41611	0.005035	-0.006409	0.085907	-0.11704	-0.052338	-0.049744	0.075531	0.039673	0.019379	-0.007477	0.011139	-0.002747	-0.001068	0.093994	0.099487	-0.004272	-0.004425
40.438	0.028992	0.31082	-0.038147	-0.007019	0.077209	-0.37262	0.054779	-0.006866	0.15305	0.007324	0.053558	0.002289	-0.050812	-0.023804	0.22461	0.006256	0.006409	0.06897	0.23239	-0.055084	-0.009766	0.024719	0.096741	-0.076141	0.007935	0.10834	0.067596	0.11124	-0.10086	-0.18265	-0.007935	0.001221
40.439	0.023499	0.31494	-0.046082	-0.008545	0.013123	-0.039063	0.06073	0.001984	0.1001	0.002441	-0.003052	0.00885	-0.037842	-0.026855	-0.011292	0.010834	0.016174	0.11322	0.168	0.05722	0.01709	0.054474	0.10208	-0.090332	-0.050659	0.027771	0.094452	0.066833	-0.25894	-0.02243	-0.005951	0.004425
40.44	0.018005	0.36636	-0.032806	0.011292	-0.014801	0.12772	0.059357	-0.006561	0.10193	0.011902	0.10101	-0.000763	-0.031891	-0.024872	-0.13351	-0.00061	0.006256	0.061493	0.070801	0.12711	0.062866	0.043488	0.0737	-0.012207	-0.12512	-0.051575	0.10117	0.007019	-0.12909	0.55817	-0.000305	0.00473
40.441	0.012665	0.34698	-0.035553	0.019073	-0.058594	0.1062	0.044556	0.001526	0.14404	0.025482	0.064392	0.001831	-0.018005	0.001526	-0.16083	0.003662	0.006714	0.007172	-0.11215	0.068207	0.015717	0.088959	0.090942	-0.067139	-0.112	-0.006104	0.011292	0.003967	-0.098267	0.26367	-0.004578	0.003052
40.442	0.012512	0.37827	-0.020599	0.012054	-0.077362	-0.028229	0.027313	0.001221	0.18692	0.028534	-0.000153	-0.001831	-0.018311	0.012207	-0.1561	0.012207	0.00885	0.023804	-0.095825	0.04425	0.011597	0.15411	0.17273	-0.033875	-0.093842	0.07309	-0.040436	0.016327	-0.15015	-0.39276	-0.002747	-0.014191
40.443	0.01358	0.34988	-0.009766	0.019836	-0.027313	-0.088806	0.00473	0.00473	0.21286	0.031586	0.019531	0.000458	-0.063324	0.05127	-0.1033	-0.001068	0.011902	0.026398	0.26001	0.009308	0.05661	0.091858	0.1474	-0.007019	-0.088196	0.11307	-0.084076	-0.17822	-0.37399	-0.99381	-0.002899	-0.011902
40.444	0.005951	0.37003	-0.007172	0.021057	0.003662	-0.02121	0.032196	0.003052	0.2243	0.032196	0.02243	0.008087	-0.08606	0.086823	-0.057526	0.001526	0.019684	0.032654	0.23315	0.034485	0.057068	0.042267	-0.009003	0.024872	-0.067902	0.090027	-0.069427	-0.31891	-0.71671	-1.2709	-0.007477	-0.013428
40.445	0.006866	0.37277	-0.011292	0.000458	0.011597	0.15045	0.070496	0.004883	0.17166	0.032959	0.008392	0.005798	-0.092926	0.009308	0.003815	-0.008392	0.027924	0.005188	0.26504	0.007172	-0.001984	0.055237	-0.02121	0.003052	-0.02533	0.01709	-0.017242	-0.014496	-1.1551	-1.2999	-0.006104	-0.013885
